<svg xmlns="http://www.w3.org/2000/svg" viewBox="0 0 64 64" role="img" aria-labelledby="title desc">
  <title id="title">COMUNIC@TE</title>
  <desc id="desc">Product icon for COMUNIC@TE under GGS SYSTEMS.</desc>
  <rect width="64" height="64" rx="14" fill="#2563eb"/>
  <path fill="#eaf1ff" d="M16 20.6c0-3.1 2.5-5.6 5.6-5.6h20.8c3.1 0 5.6 2.5 5.6 5.6v13.6c0 3.1-2.5 5.6-5.6 5.6H29.1l-8.2 7.3c-1 .9-2.6.2-2.6-1.2v-6.3c-1.4-.9-2.3-2.5-2.3-4.2V20.6Z"/>
  <path fill="#1e4fc4" d="M42.2 27.8c0 6-4.5 10.7-10.6 10.7-6.3 0-10.8-4.6-10.8-10.6 0-6.1 4.6-10.8 10.8-10.8 6.1 0 10.6 4.6 10.6 10.7Zm-15.4.1c0 3.1 1.9 5.2 4.7 5.2 2.7 0 4.7-2.1 4.7-5.2 0-3.2-2-5.3-4.7-5.3-2.8 0-4.7 2.1-4.7 5.3Z"/>
  <path fill="#eaf1ff" d="M37.6 34.1c-1.8 0-3.1-1.2-3.1-3.1v-6.2h3.7v5.3c0 .6.3.9.8.9.7 0 1.2-.6 1.2-1.6h2.8c0 2.8-2.1 4.7-5.4 4.7Z"/>
</svg>
